<svg id="Layer_1" height="512" viewBox="0 0 512 512" width="512" xmlns="http://www.w3.org/2000/svg" data-name="Layer 1"><path d="m128.876 326.59a184.437 184.437 0 0 0 -53.876 128.217 8.68 8.68 0 0 0 8.657 8.813h129.096c2.861 21.636 21.158 38.38 43.247 38.38s40.386-16.744 43.247-38.38h129.095a8.68 8.68 0 0 0 8.658-8.82 184.435 184.435 0 0 0 -53.876-128.21 178.426 178.426 0 0 0 -121.124-52.911v-251.679h48.761a6 6 0 0 0 0-12h-109.522a6 6 0 0 0 0 12h48.761v251.679a178.426 178.426 0 0 0 -121.124 52.911zm127.124 163.41c-15.469 0-28.373-11.389-31.106-26.38h62.212c-2.733 14.991-15.637 26.38-31.106 26.38zm168.92-38.38h-337.84a172.409 172.409 0 0 1 50.294-116.558 166.907 166.907 0 0 1 237.252 0 172.413 172.413 0 0 1 50.294 116.558z"/></svg>